<svg width="1024" height="1024" viewBox="0 0 1024 1024" xmlns="http://www.w3.org/2000/svg" role="img" aria-labelledby="title desc">
  <title id="title">Zamblak Penpot Safe Speed Stopwatch Icon</title>
  <desc id="desc">Flat teal stopwatch icon with balanced speed gap and lime checkmark.</desc>

  <!-- Stopwatch stem -->
  <rect x="475" y="206" width="74" height="92" rx="8" fill="#0F3D3E"/>

  <!-- Stopwatch crown -->
  <rect x="404" y="130" width="216" height="84" rx="24" fill="#0F3D3E"/>

  <!-- Stopwatch ring with balanced narrow speed gap -->
  <path
    d="M 742 418
       A 270 270 0 1 1 713 379"
    fill="none"
    stroke="#0F3D3E"
    stroke-width="88"
    stroke-linecap="butt"
    stroke-linejoin="round"/>

  <!-- Completion checkmark -->
  <path
    d="M 391 476
       C 382 476 378 486 384 493
       L 501 620
       C 513 633 533 633 545 620
       L 795 352
       C 804 342 793 333 781 342
       L 535 541
       C 525 549 510 548 501 538
       L 461 496
       C 444 478 417 475 391 476
       Z"
    fill="#A8E10C"/>
</svg>
